<?xml version="1.0" encoding="UTF-8" standalone="no"?>
<!-- Created with Inkscape (http://www.inkscape.org/) -->

<svg
   version="1.1"
   id="svg1"
   width="710.30292"
   height="725.47119"
   viewBox="0 0 710.30292 725.47119"
   sodipodi:docname="icon-light.svg"
   inkscape:version="1.4.2 (f4327f4, 2025-05-13)"
   xmlns:inkscape="http://www.inkscape.org/namespaces/inkscape"
   xmlns:sodipodi="http://sodipodi.sourceforge.net/DTD/sodipodi-0.dtd"
   xmlns="http://www.w3.org/2000/svg"
   xmlns:svg="http://www.w3.org/2000/svg">
  <defs
     id="defs1" />
  <sodipodi:namedview
     id="namedview1"
     pagecolor="#ffffff"
     bordercolor="#000000"
     borderopacity="0.25"
     inkscape:showpageshadow="2"
     inkscape:pageopacity="0.0"
     inkscape:pagecheckerboard="true"
     inkscape:deskcolor="#d1d1d1"
     showborder="false"
     inkscape:zoom="0.61416361"
     inkscape:cx="383.44831"
     inkscape:cy="376.93539"
     inkscape:window-width="1360"
     inkscape:window-height="705"
     inkscape:window-x="-8"
     inkscape:window-y="-8"
     inkscape:window-maximized="1"
     inkscape:current-layer="g1" />
  <g
     inkscape:groupmode="layer"
     inkscape:label="Image"
     id="g1"
     transform="translate(-52.799472,-31.84905)">
    <path
       style="display:inline;fill:#ffffff"
       d="m 248.1075,755.57008 c 2.086,-5.07645 3.47244,-12.51297 3.48301,-18.6819 0.0237,-13.82243 -3.91095,-23.41007 -21.28966,-51.87745 -11.2629,-18.4493 -15.53,-33.43486 -14.07922,-49.44468 l 0.66181,-7.30333 -2.71619,1.0327 c -8.21997,3.12522 -13.17508,8.25176 -26.08344,26.98582 -4.34341,6.30363 -10.53806,14.06142 -13.76588,17.23952 -6.70807,6.60473 -19.05824,13.22927 -27.60204,14.80555 -7.14697,1.31857 -20.72901,1.26237 -27.31428,-0.11301 -5.70468,-1.19147 -8.66193,-2.89322 -5.02774,-2.89322 7.61669,0 19.26543,-9.46804 23.77579,-19.32485 5.19681,-11.35699 5.95879,-16.56562 5.66457,-38.72107 -0.3162,-23.81034 0.47678,-27.7634 8.31568,-41.45408 5.94893,-10.38983 7.85517,-16.40716 7.91981,-25 l 0.0527,-7 -4.12435,0.17686 c -2.58643,0.1109 -7.43395,1.81931 -13,4.58158 -21.60939,10.72412 -35.19124,13.60957 -50.489153,10.72637 -7.467448,-1.40739 -19.257819,-7.20477 -25.502282,-12.53958 -4.689516,-4.00638 -14.89015,-16.27263 -14.148829,-17.01395 0.161363,-0.16136 3.436913,0.60589 7.279002,1.70499 5.382452,1.53976 8.93632,1.89378 15.485615,1.54263 11.533257,-0.61838 18.491504,-3.38784 26.016877,-10.35501 7.43748,-6.88579 11.27965,-14.47194 14.09201,-27.82389 3.14944,-14.95225 6.22922,-21.78654 12.80382,-28.41279 4.08881,-4.12093 7.3084,-6.29578 12.00464,-8.1092 11.14926,-4.3052 13.1296,-10.86384 4.70684,-15.58845 -12.80619,-7.18344 -32.62486,-1.75863 -48.649873,13.31654 -4.2644,4.01165 -7.956079,7.2939 -8.203732,7.2939 -0.247652,0 -1.042636,-3.2625 -1.766631,-7.25 -5.560616,-30.62585 7.452923,-49.64881 44.019626,-64.3471 25.47504,-10.23991 33.97642,-16.96082 33.97642,-26.86066 0,-3.07913 -0.83557,-4.32869 -6.21856,-9.29966 -19.04486,-17.58712 -24.34229,-24.91302 -27.32974,-37.79463 -1.29507,-5.58425 -1.38457,-8.01241 -0.48558,-13.17479 0.60617,-3.48085 1.58769,-7.39453 2.18117,-8.69707 1.07779,-2.36548 1.09039,-2.36031 10.71588,4.40049 12.014,8.43845 16.32028,10.626 24.8655,12.63145 17.0204,3.99445 33.64978,-2.25031 35.89567,-13.47975 0.49771,-2.48857 -0.49058,-4.99814 -5.44802,-13.83416 -11.35814,-20.24445 -15.84525,-35.24728 -14.74313,-49.29412 0.32364,-4.125 0.94393,-8.81437 1.3784,-10.42083 l 0.78995,-2.92083 5.44923,4.93093 c 7.3626,6.66233 18.5523,13.97694 26.17315,17.10917 4.74101,1.94859 8.65805,2.70039 16.01469,3.07369 11.85449,0.60153 17.69638,-0.81517 22.95613,-5.56704 6.85752,-6.19535 7.12006,-14.32906 0.74651,-23.12749 -4.06673,-5.61396 -9.5168,-8.02741 -18.19125,-8.05564 -3.7125,-0.0121 -6.75,-0.45738 -6.75,-0.98956 0,-1.91698 10.63709,-8.91335 17,-11.18148 5.43421,-1.93708 8.50719,-2.31977 18.74145,-2.33396 l 12.24145,-0.017 1.54738,-3.8673 c 3.56247,-8.90349 -3.22081,-16.12421 -20.53028,-21.85426 -2.66589,-0.8825 6.24413,-2.76793 13,-2.7509 11.82922,0.0298 20.31155,6.30199 21.59369,15.96724 0.62416,4.70517 0.83801,5.00522 3.56725,5.00522 3.97981,0 8.91967,2.20639 14.52882,6.48929 5.21393,3.98113 19.02154,11.13274 19.86517,10.28911 0.29448,-0.29448 -1.53821,-1.75063 -4.07263,-3.2359 -14.41234,-8.4462 -32.0678,-33.17382 -39.44287,-55.24233 -7.46884,-22.34906 -8.08454,-54.51341 -1.51041,-78.903561 1.97242,-7.31772 5.74482,-17.710934 6.95849,-19.171114 0.1255,-0.15098 2.0392,1.53652 4.25268,3.75 5.7745,5.7745 6.85029,5.38674 7.56155,-2.72549 0.94669,-10.7975 3.21099,-15.85131 10.40572,-23.22512 5.15937,-5.287788 6.54552,-6.240065 7.31388,-5.024589 0.52142,0.824838 0.95492,2.406989 0.96334,3.515889 0.0278,3.65679 6.98305,29.76382 11.18507,41.983814 5.14748,14.969504 15.09608,37.738651 20.57142,47.081361 5.62345,9.59544 11.49818,15.89152 24.65025,26.41821 14.74709,11.80332 15.53883,13.06273 15.42678,24.53898 -0.11358,11.63201 1.73267,16.00128 6.36951,15.07391 5.54155,-1.10831 8.24545,-3.0763 10.78998,-7.8533 3.00264,-5.63702 5.03141,-7.75866 11.51308,-12.04009 5.17243,-3.41662 7.14227,-7.06068 6.08781,-11.26198 -0.81523,-3.24815 -2.29314,-3.11156 -11.28496,1.04291 -4.16641,1.925 -8.60477,3.5 -9.86303,3.5 -4.60142,0 -7.19457,-5.11413 -5.95189,-11.73816 1.0968,-5.84648 2.2275,-7.26137 5.80648,-7.26595 1.76815,-0.002 9.63324,-1.32655 17.47799,-2.94289 25.18803,-5.18974 46.3808,-6.1768 63.73597,-2.96853 4.75624,0.87924 6.87099,1.92376 10.30668,5.09066 2.37743,2.19144 7.57219,5.52766 11.5439,7.41382 10.22314,4.85495 19.4516,6.39223 34.19208,5.69575 14.92709,-0.70531 19.96228,0.66574 27.57218,7.50769 5.49702,4.94229 7.88602,9.23663 7.88602,14.17549 v 3.03212 h -7.96249 c -10.09511,0 -18.07799,2.7678 -23.13085,8.01985 -4.22754,4.3942 -6.11375,3.97271 -7.95483,-1.77756 -2.73417,-8.53967 -8.74811,-11.2613 -26.45183,-11.97087 -19.97216,-0.80049 -31.34651,2.46798 -40.42986,11.61772 -3.06358,3.08597 -6.34864,7.09413 -7.30012,8.90702 -1.25592,2.39292 -3.37057,4.03708 -7.71695,6 -3.29282,1.48711 -6.00183,3.00143 -6.02002,3.36515 -0.0182,0.36372 2.77945,-0.005 6.21695,-0.82022 10.35066,-2.45359 16.86134,-3.32949 24.75,-3.32972 9.43302,-2.7e-4 14.14168,1.29612 18.45132,5.08004 7.31353,6.42136 20.01713,6.23246 34.21218,-0.50874 l 7.31508,-3.47392 -2.60329,5.19563 c -1.43181,2.85759 -3.29674,5.98312 -4.14428,6.94562 -2.55528,2.90186 -0.22094,1.97977 5.17812,-2.04543 15.37608,-11.46342 28.62437,-17.88872 39.765,-19.28564 7.74883,-0.97162 17.62892,-0.0849 23.36845,2.09726 1.42617,0.54223 8.57299,2.77477 15.88182,4.9612 7.30884,2.18643 14.14083,4.29817 15.1822,4.69276 2.75427,1.04364 -2.5984,-5.9727 -8.77146,-11.4977 -2.65933,-2.38015 -4.83514,-4.67795 -4.83514,-5.10622 0,-1.46933 15.63514,-2.08193 26.06576,-1.02128 25.00589,2.54274 46.08639,9.39546 61.4772,19.98461 3.13101,2.15419 4.4475,2.57997 5.31009,1.71738 1.70926,-1.70925 1.38964,-7.08675 -0.75698,-12.73621 -1.04716,-2.7559 -1.60966,-5.00651 -1.25,-5.00135 1.14531,0.0164 10.98444,5.90737 11.64105,6.96979 0.35034,0.56685 4.94063,1.07281 10.32189,1.13771 5.33004,0.0643 12.61599,0.40179 16.19099,0.75 l 6.5,0.63312 -0.22663,3.80633 c -0.43954,7.38241 -2.28322,11.71187 -7.0781,16.62127 -2.5824,2.64407 -5.31725,4.99936 -6.07745,5.23396 -1.14475,0.35329 -1.10181,0.96873 0.25,3.58284 2.29143,4.43114 2.039,7.9927 -0.97551,13.76356 -3.71915,7.11979 -11.66372,14.8588 -18.92125,18.43167 -3.41907,1.6832 -6.78002,3.06037 -7.46878,3.06037 -0.8876,0 -1.0515,0.94645 -0.56281,3.25 1.67464,7.89375 1.68112,9.81991 0.0516,15.3678 -1.50579,5.12682 -1.87298,5.64071 -2.85939,4.00172 -2.66747,-4.43225 -9.69245,-13.61952 -10.41406,-13.61952 -0.43255,0 -1.60004,1.37728 -2.59441,3.06062 -1.68546,2.85325 -9.50847,9.38751 -10.29607,8.59991 -0.1944,-0.1944 0.27711,-1.88504 1.0478,-3.75699 0.77068,-1.87195 1.7079,-5.26724 2.0827,-7.54509 l 0.68146,-4.14155 -7.79784,-4.35845 c -10.11616,-5.65423 -9.75684,-5.56268 -7.92441,-2.01914 3.38177,6.53963 0.86777,14.03053 -6.33858,18.88689 -4.73109,3.18828 -6.63238,3.04902 -4.42235,-0.3239 0.97106,-1.48204 1.73256,-4.67437 1.77305,-7.43295 0.0596,-4.06129 -0.40921,-5.3372 -2.92902,-7.97129 -1.67867,-1.75479 -4.87763,-3.63899 -7.26304,-4.27795 -4.75853,-1.27461 -4.96574,-2.54977 -0.7481,-4.60377 2.78542,-1.3565 8.02372,-0.79848 13.92518,1.48344 1.42587,0.55133 1.70926,0.40875 1.11113,-0.55905 -1.13451,-1.83568 -17.74246,-9.48104 -25.69789,-11.82986 l -6.67272,-1.9701 -0.69048,5.12961 c -1.34173,9.96793 -6.15893,20.32557 -10.54481,22.67282 -1.50786,0.80699 -1.93238,-0.005 -3.36055,-6.42387 -3.01591,-13.55593 -10.51468,-21.53649 -21.05785,-22.41082 -10.66221,-0.88419 -22.4146,7.98665 -29.48198,22.25334 l -4.18444,8.44701 -6.06489,0.29557 c -8.45178,0.41189 -9.99964,2.57506 -10.58369,14.79095 -0.23678,4.95254 -0.66972,9.00462 -0.96209,9.00462 -0.29237,0 -3.34795,-1.575 -6.79017,-3.5 -3.44222,-1.925 -6.54593,-3.5 -6.89713,-3.5 -1.34243,0 -3.53648,7.13465 -3.53648,11.5 0,6.01678 1.93354,10.38772 7.0511,15.93961 l 4.20362,4.56039 h 6.91479 c 9.64414,0 21.24636,-2.59527 28.31749,-6.33426 7.22853,-3.82222 16.31588,-12.64842 20.45645,-19.86857 l 3.03778,-5.29717 0.009,8.21249 c 0.0174,15.24928 -6.062,25.24818 -19.34157,31.8113 -6.95877,3.43921 -18.84657,6.32617 -26.64904,6.47173 -3.0327,0.0566 -3.24793,0.2117 -1.61201,1.1618 6.92391,4.02126 19.64851,4.7327 40.11201,2.24268 17.59916,-2.14149 40.63902,-2.19966 51.5,-0.13003 9.69282,1.84704 16.62056,2.4428 17.55379,1.50957 0.35144,-0.35144 -0.77601,-2.69561 -2.50544,-5.20926 l -3.14444,-4.57028 5.29804,0.0131 c 7.77747,0.0193 22.60666,3.34945 28.72809,6.45141 2.93454,1.48705 7.5128,4.7403 10.1739,7.22945 l 4.83837,4.52572 -5.47116,6.99238 c -5.19068,6.63391 -6.56488,9.99391 -4.58727,11.21613 2.16409,1.33749 5.11612,9.84551 5.11612,14.74515 0,6.74237 -2.7562,12.36916 -9.76935,19.9442 -5.3645,5.79431 -17.04832,15.39809 -17.80839,14.63802 -0.20831,-0.20831 0.0589,-3.05104 0.5937,-6.31717 2.09512,-12.79421 0.84056,-20.73046 -4.25412,-26.91119 -3.66755,-4.44937 -9.42667,-7.46334 -15.67506,-8.20337 l -4.77644,-0.5657 -0.59685,6.87092 c -0.92412,10.63832 -3.59083,16.48347 -5.20292,11.40423 -1.03295,-3.25455 -8.97247,-10.72695 -14.22621,-13.38922 -7.88535,-3.99581 -16.00848,-5.6441 -27.81537,-5.6441 -11.24755,0 -28.46899,1.85476 -28.46899,3.06613 0,0.97641 6.40862,3.94263 13,6.01703 l 5.5,1.73093 -4.54725,1.9705 c -13.91656,6.03062 -38.14094,9.59067 -60.95275,8.95769 -19.09969,-0.52997 -25.64737,-2.12944 -35.93398,-8.77801 l -6.28972,-4.06524 0.37062,7.33933 c 0.47157,9.3385 4.67068,18.29039 12.59393,26.84845 5.77242,6.2349 23.3894,18.61901 33.41578,23.4901 l 5.65663,2.74814 -2.60603,4.08748 c -8.08336,12.6785 -13.96062,16.78251 -26.20723,18.30013 l -6.5,0.8055 4.89499,5.24964 c 12.40721,13.3061 29.783,15.51931 49.97219,6.36509 6.37362,-2.88993 17.20541,-9.68314 21.25501,-13.33016 2.0284,-1.82675 2.15487,-1.83148 2.86144,-0.10698 1.44282,3.52144 1.79539,20.20863 0.55968,26.48963 -2.3101,11.74198 -10.5873,23.59098 -21.79738,31.20344 -5.1883,3.52323 -18.36685,8.9422 -27.49593,11.30621 -3.7125,0.96137 -6.74484,1.98578 -6.73853,2.27646 0.006,0.29068 1.79379,1.38232 3.97217,2.42585 7.53702,3.61056 19.93678,14.69833 33.40279,29.86852 18.2046,20.50846 28.01952,28.04153 42.67574,32.75413 l 7.17372,2.30666 -3.36795,1.81248 c -7.32097,3.93983 -15.78192,5.86087 -25.81332,5.86087 -12.0825,0 -21.14378,-2.2199 -34.36032,-8.41785 -13.74357,-6.4451 -21.0644,-8.76912 -29.43981,-9.34575 -7.13259,-0.49106 -16.25449,1.11304 -16.25449,2.85838 0,0.45917 0.88149,1.30661 1.95887,1.88321 2.69699,1.44338 10.54054,12.63969 13.41641,19.15132 1.30459,2.95388 3.33479,8.88488 4.51156,13.18001 3.05131,11.13705 6.51241,17.32632 13.55319,24.23628 5.6144,5.51008 14.28243,10.65376 25.55997,15.16748 2.47367,0.99006 2.44733,1.03407 -2.5,4.17875 -13.61434,8.65369 -37.9612,12.25386 -57.63954,8.52316 -16.10897,-3.05401 -27.83946,-8.52293 -52.36046,-24.4112 -16.32907,-10.58034 -26.55704,-15.30652 -36.25,-16.75054 -3.4375,-0.5121 -6.25,-0.79377 -6.25,-0.62592 0,0.16785 1.7852,3.06725 3.96712,6.44311 7.45622,11.53621 11.04538,25.14526 11.01551,41.76753 -0.0348,19.37366 -4.83073,32.1822 -16.39036,43.77409 -4.82361,4.83706 -9.40341,8.27576 -14.31731,10.75 -10.34985,5.21134 -10.27496,5.24731 -10.27496,-4.93574 0,-15.44083 -6.34186,-29.8905 -18.43478,-42.00294 -7.37595,-7.38785 -15.3225,-12.05833 -21.46402,-12.6152 -3.15773,-0.28632 -3.49941,-0.0245 -4.81727,3.69182 -2.19317,6.18464 -5.23823,20.56827 -5.26229,24.85699 -0.0258,4.59574 -0.53449,4.51539 -8.99767,-1.4212 -6.79772,-4.76832 -13.11143,-12.88087 -15.96922,-20.51899 -4.21765,-11.27268 -3.62028,-27.01655 1.44817,-38.1668 l 2.38643,-5.25 -3.19468,0.004 c -4.48937,0.005 -9.03901,3.09477 -11.16979,7.58507 -3.2806,6.91335 -4.53645,13.66835 -6.04783,32.53029 -0.82056,10.24051 -2.35791,22.0051 -3.41635,26.14353 -6.22597,24.34332 -23.01922,39.73737 -43.34919,39.73737 -5.2506,0 -5.84359,-0.19932 -5.20639,-1.75 z m 21.49488,-23.3557 c 8.7623,-5.25292 12.41931,-10.98822 14.1646,-22.2144 0.99312,-6.38794 0.84458,-9.44145 -1.12489,-23.12476 -2.57778,-17.90969 -2.50194,-31.99924 0.19979,-37.11593 2.5372,-4.80508 7.80202,-9.37171 12.88652,-11.17757 4.57797,-1.62595 4.6341,-1.6981 3.11942,-4.0098 -5.46007,-8.33312 -17.30414,-6.49048 -27.87478,4.33662 -3.02013,3.09341 -5.61745,5.464 -5.77181,5.26796 -1.50104,-1.90629 -3.04829,-12.2733 -3.03814,-20.35642 0.0175,-13.90385 4.45527,-27.40732 13.63861,-41.5 l 2.28074,-3.5 -4.49003,3.4415 c -8.64499,6.62616 -20.91793,20.01905 -25.50412,27.83144 -5.81555,9.90657 -7.48591,15.64716 -7.48591,25.72706 0,10.00484 1.02471,13.55739 11.53781,40 10.53733,26.50355 12.75978,34.83254 12.87453,48.24929 0.0482,5.63711 0.31266,10.24793 0.58766,10.24626 0.275,-0.002 2.075,-0.94722 4,-2.10125 z m 146.45491,-19.05445 c 1.99374,-6.71363 1.97125,-17.02763 -0.0521,-23.90835 -1.8322,-6.23058 -7.59332,-18.05968 -12.65928,-25.9928 -14.28256,-22.366 -17.12824,-41.73605 -8.10201,-55.14898 1.87645,-2.7884 3.2757,-5.20585 3.10944,-5.37211 -1.09494,-1.09494 -19.38649,9.29735 -25.44086,14.45414 -8.33881,7.10256 -12.23257,11.99625 -26.19866,32.92656 -5.61442,8.41407 -11.10272,16.19299 -12.19621,17.28648 -2.48116,2.48115 -2.0622,3.15581 3.61771,5.82568 4.5086,2.11929 4.60437,2.12233 8.76275,0.27821 2.31238,-1.02547 6.78768,-4.22881 9.94512,-7.11852 l 5.74079,-5.25401 4.75921,3.52351 c 11.20165,8.29324 25.90427,25.98977 32.03244,38.55526 3.50893,7.19485 3.70947,8.13591 3.71788,17.44594 l 0.009,9.84086 5.70491,-6.06951 c 4.13701,-4.40139 6.12957,-7.49944 7.25,-11.27236 z M 164.60238,665.34107 c 4.08932,-4.14724 8.88573,-10.65848 12.93274,-17.55652 16.22697,-27.65848 24.63686,-36.19343 41.8412,-42.46342 3.45067,-1.25757 6.15067,-2.39425 6,-2.52595 -0.15067,-0.1317 -4.17868,-1.19247 -8.95113,-2.35728 -15.58498,-3.80379 -27.58232,-2.35232 -36.44758,4.40954 -1.92862,1.47104 -3.73805,2.44316 -4.02093,2.16028 -0.95733,-0.95733 2.57284,-12.60034 5.69677,-18.78881 1.70798,-3.3835 5.16328,-8.35184 7.67843,-11.04074 2.51516,-2.6889 4.28434,-5.17758 3.93152,-5.5304 -1.22361,-1.22361 -15.59754,6.76159 -20.90813,11.61517 -10.80347,9.87377 -13.49466,18.39334 -14.71918,46.59704 -0.54513,12.55556 -1.47887,22.38932 -2.50017,26.33065 -1.888,7.28603 -5.80922,16.56376 -7.4219,17.56045 -0.6114,0.37787 -1.11164,1.05861 -1.11164,1.51276 0,0.45415 2.5875,-0.10947 5.75,-1.25249 4.37946,-1.58287 7.2993,-3.64946 12.25,-8.67028 z m 359.72565,-2.27099 c -11.65591,-11.66189 -17.28535,-20.58844 -22.26176,-35.30023 -5.73125,-16.94333 -9.35896,-22.13041 -16.78008,-23.99299 -2.3964,-0.60146 -2.85941,-0.28077 -4.189,2.90139 -0.93595,2.24003 -1.49481,6.81543 -1.49481,12.23787 v 8.66028 l -3.25,-2.61217 c -19.53766,-15.70325 -41.75278,-28.97941 -58.65105,-35.05094 -8.49056,-3.05064 -11.05314,-2.96408 -5.93289,0.20041 7.16891,4.43063 11.55192,8.51257 20.33394,18.9372 13.7746,16.35105 21.54923,21.99027 58,42.06947 15.97492,8.79991 39.06389,19.94426 41.73571,20.14456 0.40464,0.0303 -2.97488,-3.65735 -7.51006,-8.19485 z M 339.65829,612.34161 c 8.0996,-14.29349 12.61456,-33.222 10.86729,-45.55998 -2.25967,-15.95612 -10.28022,-28.49705 -23.28924,-36.41502 -3.54657,-2.15863 -3.81745,-2.1958 -3.27812,-0.4498 3.14737,10.18902 4.01565,17.01759 4.07761,32.0682 0.0366,8.89071 -0.21324,16.44549 -0.55521,16.78841 -0.34196,0.34293 -2.90591,-0.79641 -5.69765,-2.53186 -7.68687,-4.77841 -17.84705,-5.28174 -20.1398,-0.9977 -0.86963,1.62492 -0.39094,2.26702 3.30478,4.43285 11.71454,6.86518 19.94831,23.17033 22.1653,43.89346 l 0.72214,6.75009 3.91792,-5.4713 c 2.15485,-3.00922 5.71209,-8.63753 7.90498,-12.50735 z m 239.07587,-13.77153 c -2.12578,-3.96356 -29.27923,-30.35631 -37.63178,-36.57755 -10.08388,-7.51078 -23.26192,-14.66916 -31.43151,-17.07377 -6.97647,-2.05342 -17.40666,-2.04353 -23.46942,0.0223 -5.52209,1.88157 -5.12575,2.59921 2.34036,4.23763 2.99168,0.65651 9.74168,3.29427 15,5.86169 l 9.56057,4.66803 -9.5,0.65604 c -12.75075,0.88052 -17.06642,2.22933 -21.39626,6.68712 -1.98206,2.04063 -3.60374,3.99625 -3.60374,4.34581 0,0.34957 6.8625,0.88886 15.25,1.19843 27.94562,1.0314 46.28382,6.43972 75.25,22.19282 5.5,2.99114 10.12833,5.45938 10.28518,5.48497 0.15685,0.0256 -0.13718,-0.74098 -0.6534,-1.70348 z M 254.83193,571.80933 c 25.22177,-8.53313 38.77045,-29.02788 38.77045,-58.64709 0,-4.53319 -0.37719,-7.81466 -0.8382,-7.29216 -0.461,0.5225 -1.86287,3.875 -3.11525,7.45 -4.77862,13.64084 -16.02038,27.8434 -28.43312,35.9217 -6.71714,4.37157 -13.55873,7.53615 -13.71033,6.34172 -0.0533,-0.41988 -0.0159,-2.49241 0.0831,-4.60563 0.34474,-7.35801 -3.92659,-12.65779 -10.2015,-12.65779 -2.23303,0 -2.31431,0.29068 -2.30685,8.25 0.009,9.56187 -1.07167,12.18033 -8.66813,21.00377 -3.31724,3.85304 -4.51696,5.90614 -3.63171,6.21501 6.03262,2.10481 23.09374,1.0511 32.05151,-1.97953 z m 177.45462,-10.12944 5.18418,-0.6228 -6.84513,-5.35595 c -12.59771,-9.85703 -21.86385,-24.52649 -22.79139,-36.08161 l -0.53871,-6.71129 -3.70931,4.17986 c -4.85933,5.47578 -6.50827,11.34168 -5.24666,18.66439 0.61652,3.57846 0.61387,5.56759 -0.007,5.56759 -0.53164,0 -5.2456,-2.1375 -10.47546,-4.75 -9.43892,-4.71508 -28.0474,-17.90006 -35.79215,-25.36042 -2.22081,-2.13927 -4.33406,-3.88958 -4.6961,-3.88958 -1.27353,0 2.47448,10.58836 6.54852,18.5 6.21016,12.05991 17.35858,22.85485 29.75292,28.80957 5.18789,2.49246 11.90752,5.01302 14.93252,5.60124 3.025,0.58823 6.4,1.24673 7.5,1.46335 3.34157,0.65802 20.66642,0.64853 26.18417,-0.0144 z m -318.50073,-8.27885 c 25.30111,-6.47093 46.5238,-24.37309 59.98484,-50.59951 4.58293,-8.92902 10.15543,-23.12962 9.6147,-24.50148 -0.15564,-0.39487 -2.40198,-0.0937 -4.99186,0.66931 -4.76874,1.40489 -6.35291,2.9074 -14.0463,13.3222 -3.47249,4.70083 -10.79207,10.37161 -11.88804,9.21017 -1.61162,-1.7079 -2.6911,-11.1235 -1.91641,-16.71547 0.4546,-3.2814 0.69759,-6.11007 0.53999,-6.28594 -0.77453,-0.86429 -8.54056,4.12429 -11.28297,7.24772 -3.57126,4.06745 -4.54515,7.16689 -6.63245,21.108 -2.48661,16.6081 -5.97185,23.77854 -16.38581,33.71177 -5.85617,5.58584 -12.57061,9.57186 -21.679123,12.86977 l -5.000004,1.81035 8.090034,0.0361 c 4.819533,0.0215 11.123373,-0.73972 15.593403,-1.88296 z m 81.77384,-12.75806 c 3.00151,-0.82461 7.70237,-2.63695 10.44634,-4.02743 6.56781,-3.32816 16.09412,-12.95793 18.59856,-18.80056 1.0988,-2.56339 1.99782,-4.75366 1.99782,-4.86724 0,-0.11359 -3.91397,1.70975 -8.6977,4.05188 -4.78373,2.34212 -8.82727,4.12882 -8.98564,3.97045 -0.15838,-0.15838 0.37277,-3.40692 1.18033,-7.21898 2.88869,-13.63609 1.12014,-23.70276 -5.39043,-30.68243 l -3.74602,-4.01593 -1.15781,10.38367 c -2.09422,18.78175 -7.25807,36.61122 -13.70359,47.31507 -1.92453,3.196 -3.49914,5.9531 -3.49914,6.12688 0,0.5694 7.38661,-0.70494 12.95728,-2.23538 z m 262.79873,-24.5729 c -0.4109,-22.18645 -0.67363,-25.10095 -3.08746,-34.25 -3.25213,-12.32643 -8.95976,-23.96724 -15.89801,-32.42424 -6.61607,-8.06429 -8.06909,-8.71814 -6.29827,-2.83416 0.72075,2.39489 1.82443,11.08275 2.45262,19.30637 0.62819,8.22362 1.25656,16.37044 1.39639,18.10405 l 0.25424,3.15201 -4.27836,-2.94358 c -2.35309,-1.61897 -8.11734,-4.78566 -12.80944,-7.03709 -10.25242,-4.91946 -20.31832,-6.29091 -24.769,-3.37472 l -2.58759,1.69546 6.62429,3.45282 c 9.09908,4.74276 15.68795,10.02219 26.09841,20.91172 8.14435,8.51913 21.85652,25.87454 28.63359,36.24136 1.52809,2.3375 3.21471,4.25 3.74803,4.25 0.61194,0 0.80399,-8.94665 0.52056,-24.25 z m 81.53102,6.79204 c 17.80058,-3.1733 31.85124,-14.07701 35.7765,-27.76357 0.43827,-1.52816 0.65926,-2.77847 0.49109,-2.77847 -0.16817,0 -2.80047,1.10328 -5.84955,2.45172 -21.03807,9.30404 -44.34968,8.02853 -61.20802,-3.34903 -2.47338,-1.66926 -4.49705,-2.8029 -4.49705,-2.5192 0,1.4814 3.83906,7.63119 8.20718,13.14707 l 4.93409,6.23057 -4.27269,-1.5075 c -11.68638,-4.12319 -37.28647,-21.48975 -44.61362,-30.26492 -3.33477,-3.99381 -2.74498,-1.25882 1.78443,8.27479 11.41285,24.02203 32.99972,38.94801 56.96061,39.38471 2.475,0.0451 8.00416,-0.54267 12.28703,-1.30617 z M 251.11009,509.57008 c 1.97782,-6.89398 5.00039,-12.38844 11.96494,-21.75 5.37703,-7.22766 17.4247,-19.53181 23.47163,-23.9713 l 3.44427,-2.5287 h -5.65676 c -9.11043,0 -16.0341,3.19541 -24.16818,11.15408 -3.84823,3.76526 -7.058,6.84592 -7.13281,6.84592 -0.0748,0 -0.97547,-4.725 -2.00146,-10.5 -1.026,-5.775 -2.24222,-10.5 -2.70272,-10.5 -1.82096,0 -5.85291,11.27514 -6.94159,19.41182 -1.5935,11.90974 -0.0112,23.50761 4.31422,31.62301 1.74867,3.28085 3.30977,5.96517 3.46911,5.96517 0.15935,0 1.03205,-2.5875 1.93935,-5.75 z m 128.06406,-19.56701 c -4.06827,-5.33378 -10.18904,-19.46093 -12.64391,-29.18299 -1.72185,-6.81908 -2.41253,-13.11451 -2.85021,-25.9793 l -0.57765,-16.97931 -3.73089,4.55897 c -6.67098,8.15163 -10.76911,20.41155 -10.76911,32.21673 0,6.17882 -0.1822,6.82118 -1.75,6.1697 -4.60649,-1.91417 -10.89421,-3.48679 -13.94105,-3.48679 -3.80553,0 -10.30895,2.4148 -10.30895,3.82785 0,1.24094 12.49483,12.97347 19.17188,18.00221 10.7102,8.06626 25.66329,13.81758 36.62901,14.08841 l 3.30089,0.0815 z M 230.92224,452.06594 c 7.07581,-3.36029 22.31981,-14.43952 21.28763,-15.4717 -0.24876,-0.24876 -3.6109,0.0378 -7.47144,0.63678 -3.86054,0.59898 -9.09167,1.08906 -11.62473,1.08906 h -4.60557 l 2.98849,-3.75 c 4.41974,-5.54595 8.89187,-14.62266 9.59743,-19.47911 0.38226,-2.63117 0.0916,-5.77417 -0.75697,-8.1864 l -1.37746,-3.9155 -3.85669,6.9155 c -4.76583,8.5457 -17.59821,21.44964 -26.54954,26.69759 -3.54806,2.08015 -9.57872,4.73888 -13.40147,5.90829 l -6.95046,2.12621 4.28647,3.80391 c 6.55585,5.81781 12.97459,7.95941 22.70289,7.57479 6.84148,-0.27049 9.26675,-0.87936 15.73142,-3.94942 z m 288.10593,1.15462 c 3.25918,-1.32026 6.09127,-2.90923 6.29351,-3.53103 0.20603,-0.63342 -1.28184,-1.44 -3.38371,-1.83431 -6.3039,-1.18262 -15.67037,-5.99708 -18.83559,-9.68168 -1.65,-1.92075 -5.67186,-6.93918 -8.93747,-11.15207 -3.2656,-4.21289 -6.09069,-7.50657 -6.27797,-7.31928 -0.18729,0.18728 0.16004,1.64042 0.77183,3.2292 0.61179,1.58878 1.18688,6.33557 1.27798,10.54843 0.14623,6.76275 -0.10639,7.95043 -2.15718,10.14195 -1.27754,1.36521 -4.31902,3.19539 -6.75885,4.06706 -2.43983,0.87168 -6.45707,2.30752 -8.9272,3.19077 -2.47013,0.88324 -4.49114,1.95731 -4.49114,2.38682 0,1.31534 19.78226,2.87989 33,2.60992 10.50097,-0.21447 13.44766,-0.63919 18.42579,-2.65578 z M 109.45201,441.95304 c 2.94229,-0.87138 13.94985,-2.52146 24.46125,-3.66683 26.59178,-2.89759 37.26479,-5.27467 48.13517,-10.7206 5.94793,-2.97985 16.0756,-12.39583 18.55505,-17.25115 2.06433,-4.04243 4.35387,-11.97274 3.65764,-12.66897 -0.26,-0.25999 -2.29253,0.84555 -4.51674,2.45676 -6.57217,4.76086 -38.56226,17.31404 -47.85906,18.78029 -4.39195,0.69268 -9.28294,-0.8674 -9.28294,-2.96098 0,-0.79642 1.165,-2.83256 2.58889,-4.52475 2.99569,-3.56018 2.93455,-3.60125 -2.21677,-1.489 -25.85091,10.59993 -37.70034,19.38023 -42.87803,31.77219 -1.991853,4.76717 -1.933963,4.9181 1.25592,3.27441 1.5125,-0.77937 5.15732,-2.12998 8.09962,-3.00137 z m 202.89073,-16.8793 c 3.38311,-7.21508 11.35001,-16.36365 17.79678,-20.43646 2.4526,-1.54946 4.46008,-3.12541 4.46107,-3.50211 0.003,-1.20067 -17.3167,-0.0541 -22.14895,1.46619 l -4.65074,1.46324 -0.62287,-5.12226 c -0.34258,-2.81724 -0.67824,-10.18476 -0.74591,-16.37226 -0.0677,-6.1875 -0.43225,-11.25 -0.81017,-11.25 -1.1261,0 -7.70641,10.08641 -10.43831,16 -3.61698,7.82947 -4.90762,15.24424 -4.31394,24.78355 0.43664,7.01583 1.12566,9.54102 4.50213,16.5 2.19263,4.51905 5.70692,10.19364 7.80953,12.6102 l 3.82295,4.39374 1.20306,-7.14008 c 0.66169,-3.92705 2.5226,-9.95423 4.13537,-13.39375 z m -51.21448,-41.30242 c 3.24287,-0.84466 7.4304,-2.70599 9.30563,-4.1363 2.96557,-2.26195 3.19063,-2.72304 1.72848,-3.5413 -1.34398,-0.75213 -15.82927,-2.6237 -21.25725,-2.74654 -0.65849,-0.0149 2.80923,-3.98431 7.70605,-8.82089 9.93766,-9.81544 14.57213,-17.87218 15.68482,-27.26706 l 0.63133,-5.33059 -7.91247,8.89353 c -12.38277,13.91808 -25.80654,24.50638 -39.91247,31.48185 -6.6,3.26373 -12.9,6.2264 -14,6.58371 -1.69709,0.55125 -1.37946,0.92006 2.09714,2.43507 2.25343,0.98199 6.52843,2.27867 9.5,2.88151 2.97157,0.60285 6.30286,1.30412 7.40286,1.55839 3.77335,0.87223 23.13039,-0.4558 29.02588,-1.99138 z m -44.53531,-21.00808 c 4.36127,-1.37772 8.16379,-2.88391 8.45005,-3.34709 0.28626,-0.46318 -2.28328,-1.14857 -5.71008,-1.52311 -8.64938,-0.94533 -23.27581,-4.39406 -29.10641,-6.86294 l -4.87587,-2.0646 12.87587,-2.19158 c 17.88351,-3.04393 28.22995,-7.34772 34.87587,-14.50727 2.47599,-2.66736 2.65066,-3.13767 1,-2.69259 -1.1,0.29659 -6.275,1.75729 -11.5,3.24598 -22.2372,6.33577 -57.1784,3.67251 -72.80864,-5.54956 -1.89389,-1.11742 -3.61652,-1.85858 -3.82807,-1.64702 -0.76036,0.76035 2.69482,9.03066 6.14713,14.71379 7.32417,12.05687 22.3487,22.55572 35.67024,24.92565 7.81239,1.38984 19.78615,0.35095 28.80991,-2.49966 z m 45.54933,-61.96478 c 10.48806,-2.67761 17.88327,-7.02742 27.48987,-16.16935 4.93363,-4.69498 8.97023,-8.94123 8.97023,-9.4361 0,-0.49487 -1.6875,-0.1677 -3.75,0.72704 -18.02425,7.81922 -29.92874,10.62755 -43.25,10.20288 l -9.5,-0.30285 5.69657,-2.79741 c 5.8488,-2.87216 12.82152,-9.98978 14.74655,-15.05301 0.55406,-1.45727 0.84951,-2.64958 0.65656,-2.64958 -0.19296,0 -2.83631,1.0992 -5.87413,2.44267 -17.60689,7.7866 -34.44489,7.738 -50.18284,-0.14487 -2.77349,-1.38919 -5.83021,-3.21924 -6.79271,-4.06679 -2.52721,-2.22536 -2.19407,-0.86412 1.84232,7.52787 4.47499,9.30389 15.07708,20.3408 24.04175,25.02777 11.31845,5.91759 24.40585,7.62769 35.90583,4.69173 z M 372.28002,196.65571 c 2.4304,-0.57603 3.63227,-2.78382 2.85264,-5.2402 -0.28328,-0.89255 -2.76848,-3.40778 -5.52267,-5.5894 -2.75419,-2.18162 -5.00761,-4.22961 -5.00761,-4.55109 0,-0.32149 1.575,-1.33558 3.5,-2.25355 5.44938,-2.59863 5.11378,-5.36949 -1.47783,-12.20139 -6.08184,-6.30354 -9.33201,-11.47403 -21.96341,-34.94011 -15.57216,-28.92929 -23.40221,-39.180147 -31.67157,-41.463427 -8.90071,-2.4576 -8.70092,6.40574 0.45629,20.243217 2.49629,3.77214 2.51572,3.9245 0.67241,5.27235 -1.04398,0.76339 -2.26215,1.38797 -2.70702,1.38797 -2.49315,0 -0.0476,2.3555 5.19113,5 3.3,1.66583 6,3.47231 6,4.0144 0,0.54208 -1.6875,1.03884 -3.75,1.10391 -2.0625,0.0651 -5.03659,0.40258 -6.60909,0.75 l -2.85908,0.63169 4.35908,3.48394 c 5.74074,4.58821 20.85909,19.09277 20.85909,20.01224 0,0.65596 -9.69359,-2.84271 -22.5,-8.12086 -8.94718,-3.68756 -8.97109,-3.68698 -6.97642,0.17029 2.89427,5.5969 11.386,13.17958 23.97642,21.40972 12.77642,8.35173 17.5,12.16796 17.5,14.13844 0,0.83054 -3.11019,1.4319 -9.75,1.88517 -5.3625,0.36607 -10.2,0.78841 -10.75,0.93854 -0.55,0.15013 0.54877,1.72875 2.44172,3.50805 9.67673,9.09574 29.43698,13.79911 43.73592,10.4101 z m 26.81243,-68.11651 c -1.57237,-13.91766 -5.80677,-24.4451 -10.93672,-27.19057 -2.30911,-1.23579 -2.81211,-1.1978 -4.33287,0.32732 -2.35074,2.35748 -2.09294,11.77647 0.60511,22.10812 1.14386,4.3802 1.90548,8.13827 1.69249,8.35126 -0.213,0.213 -2.60712,-1.68915 -5.32028,-4.22699 -13.97062,-13.06789 -18.96102,-39.067447 -11.29954,-58.869695 1.04174,-2.69253 1.1549,-2.72983 3.53997,-1.16707 4.87118,3.191714 8.56177,-0.44427 8.56177,-8.43509 0,-6.62981 2.75753,-13.6551 7.35156,-18.72936 l 4.32177,-4.77355 0.64466,11.44325 c 1.10623,19.63675 4.70155,30.940764 15.50067,48.735538 5.26956,8.683167 13.18134,26.138747 13.18134,29.081697 0,0.61931 -1.51843,1.12602 -3.37428,1.12602 -4.26129,0 -11.04264,2.3629 -15.80763,5.50801 l -3.6819,2.43024 z"
       id="path2" />
  </g>
</svg>
